<svg xmlns="http://www.w3.org/2000/svg" xmlns:xlink="http://www.w3.org/1999/xlink"><symbol viewBox="0 0 17 20" id="cart"><path d="M4.41 5.154S4.41 1 8.5 1s4.09 4.154 4.09 4.154M1 5.154V19h15V5.154H1z"/></symbol><symbol viewBox="0 0 19 19" id="search"><path d="M8 16a7.952 7.952 0 004.897-1.688l4.396 4.396 1.414-1.414-4.396-4.396A7.952 7.952 0 0016 8c0-4.411-3.589-8-8-8S0 3.589 0 8s3.589 8 8 8zM8 2c3.309 0 6 2.691 6 6s-2.691 6-6 6-6-2.691-6-6 2.691-6 6-6z"/></symbol><symbol viewBox="0 0 19 20" id="user"><path d="M9.5 0C6.59 0 4.222 2.361 4.222 5.263c0 2.902 2.368 5.263 5.278 5.263 2.91 0 5.278-2.36 5.278-5.263C14.778 2.361 12.41 0 9.5 0zm0 8.421a3.166 3.166 0 01-3.167-3.158A3.166 3.166 0 019.5 2.105a3.166 3.166 0 013.167 3.158A3.166 3.166 0 019.5 8.421zM19 20v-1.053c0-4.062-3.316-7.368-7.389-7.368H7.39c-4.076 0-7.39 3.306-7.39 7.368V20h2.111v-1.053c0-2.902 2.368-5.263 5.278-5.263h4.222c2.91 0 5.278 2.361 5.278 5.263V20H19z"/></symbol></svg>